<?xml version="1.0" standalone="no"?>
<!DOCTYPE svg PUBLIC "-//W3C//DTD SVG 20010904//EN"
 "http://www.w3.org/TR/2001/REC-SVG-20010904/DTD/svg10.dtd">
<svg version="1.0" xmlns="http://www.w3.org/2000/svg"
 width="700.000000pt" height="700.000000pt" viewBox="0 0 700.000000 700.000000"
 preserveAspectRatio="xMidYMid meet">
<metadata>
Created by potrace 1.14, written by Peter Selinger 2001-2017
</metadata>
<g transform="translate(0.000000,700.000000) scale(0.100000,-0.100000)"
fill="#000000" stroke="none">
<path d="M5375 6663 c-11 -2 -58 -11 -105 -20 -506 -94 -930 -468 -1095 -965
-36 -110 -37 -111 -68 -115 -116 -15 -168 -26 -332 -67 -224 -56 -534 -216
-730 -376 -93 -76 -298 -282 -796 -801 -68 -71 -390 -405 -559 -579 -172 -178
-184 -197 -182 -297 3 -125 113 -228 240 -225 93 2 122 23 324 233 103 107
230 239 283 294 53 55 183 189 288 298 106 110 227 236 270 280 167 175 355
362 412 412 150 131 366 245 588 309 61 18 66 19 134 31 57 9 56 9 59 -22 18
-179 53 -319 118 -474 6 -12 -6 -18 -61 -28 -159 -29 -370 -122 -472 -209 -74
-62 -515 -512 -913 -931 -110 -115 -122 -138 -95 -175 17 -23 54 -24 272 -1
43 5 104 10 230 20 44 4 84 9 88 12 15 9 57 -27 57 -50 0 -13 -82 -158 -182
-322 -99 -165 -263 -435 -363 -600 -100 -165 -187 -310 -195 -321 -18 -29 2
-80 34 -86 22 -4 306 75 1081 303 226 67 417 122 425 124 59 15 559 170 615
191 347 133 624 478 673 839 12 91 6 291 -11 366 -1 7 41 11 128 11 117 0 214
7 285 22 112 22 120 23 120 12 0 -6 4 -42 7 -81 9 -92 9 -273 0 -357 -49 -471
-354 -937 -777 -1189 -140 -84 -222 -116 -525 -209 -327 -101 -368 -113 -580
-175 -104 -30 -227 -66 -272 -80 -45 -14 -90 -28 -100 -30 -74 -15 -206 -61
-243 -83 -26 -16 -57 -47 -74 -76 -26 -42 -30 -58 -31 -120 0 -64 4 -79 30
-122 19 -30 49 -60 79 -79 71 -44 151 -42 311 9 66 20 127 39 135 40 8 2 78
23 155 45 77 23 165 49 195 58 208 60 741 223 814 249 333 116 700 385 920
674 51 67 156 218 156 225 0 2 18 35 40 73 106 183 189 426 226 660 31 197 24
548 -15 712 -16 70 -15 75 45 120 75 56 210 191 266 265 137 183 242 419 274
619 3 21 8 48 11 60 3 11 7 104 8 206 4 314 -48 528 -187 772 -86 152 -195
282 -328 392 -207 172 -399 260 -700 321 -38 8 -373 15 -405 8z"/>
<path d="M2187 2796 c-21 -8 -48 -22 -60 -33 -24 -20 -17 -13 -395 -402 -153
-157 -306 -315 -342 -351 -128 -132 -626 -644 -680 -700 -30 -31 -174 -180
-320 -330 -146 -150 -270 -278 -276 -285 -25 -26 -53 -95 -57 -141 -11 -138
104 -257 242 -250 31 2 74 11 94 21 32 15 153 132 389 376 40 42 199 206 353
364 154 158 306 315 339 349 97 100 639 658 811 833 88 90 173 187 189 215
107 186 -83 406 -287 334z"/>
<path d="M2738 1348 c-20 -4 -81 -21 -135 -37 -253 -76 -342 -103 -388 -118
-27 -8 -70 -21 -95 -28 -60 -17 -375 -111 -584 -175 -105 -32 -182 -61 -203
-77 -136 -104 -112 -324 43 -398 85 -40 94 -38 605 115 261 78 492 148 514
155 73 23 220 67 230 69 6 1 46 13 90 26 68 21 88 32 131 75 57 56 73 100 68
184 -7 135 -142 237 -276 209z"/>
</g>
</svg>
