<svg width="18" height="18" viewBox="0 0 18 18" fill="none" xmlns="http://www.w3.org/2000/svg">
<g clip-path="url(#clip0_1268_130)">
<path d="M17.7572 14.3131L10.5739 1.87067C10.2503 1.31014 9.64717 0.961914 8.99984 0.961914C8.35254 0.961914 7.74997 1.31014 7.42656 1.87067L0.242736 14.3125C-0.0809121 14.873 -0.0809121 15.5692 0.242736 16.1297C0.566385 16.6903 1.16924 17.0382 1.81626 17.0382H16.1837C16.8308 17.0382 17.4341 16.6903 17.7573 16.1297C18.0809 15.5692 18.0809 14.873 17.7572 14.3131ZM9.00012 14.992C8.37898 14.992 7.87467 14.4882 7.87467 13.8669C7.87467 13.2457 8.37898 12.742 9.00012 12.742C9.62123 12.742 10.125 13.2457 10.125 13.8669C10.125 14.4882 9.62123 14.992 9.00012 14.992ZM9.69326 11.3911C9.69326 11.7739 9.38269 12.084 9.00012 12.084C8.61699 12.084 8.30695 11.774 8.30695 11.3911L7.87467 6.30313C7.87467 5.68171 8.37898 5.17796 9.00012 5.17796C9.62123 5.17796 10.125 5.68175 10.125 6.30313L9.69326 11.3911Z" fill="#EB008B"/>
</g>
<defs>
<clipPath id="clip0_1268_130">
<rect width="18" height="18" fill="white"/>
</clipPath>
</defs>
</svg>
