<svg xmlns="http://www.w3.org/2000/svg" width="800" height="288" fill="none"><g fill="#E81B88" opacity=".13"><path d="M119.696 239.198a6 6 0 0 0-6 6v34.511a6 6 0 0 0 6 6h68.23a6 6 0 0 0 6-6v-34.511a6 6 0 0 0-6-6h-68.23Zm80.459-68.048a6 6 0 0 1-6-6v-39.322a6 6 0 0 0-6-6h-68.229a6 6 0 0 0-6 6v39.322a6 6 0 0 1-6 6H97.019c-4.28 0-7.184-4.353-5.54-8.305l27.701-66.559c1.644-3.951-1.259-8.305-5.54-8.305H42.23a6 6 0 0 0-5.511 3.627L.489 175.742A6.002 6.002 0 0 0 0 178.115v8.572a6 6 0 0 0 6 6h212.642a6 6 0 0 0 6-6v-9.537a6 6 0 0 0-6-6h-18.487ZM148.016 26.885c1.663-3.954-1.241-8.326-5.531-8.326H72.468a6 6 0 0 0-5.5 3.601l-14.25 32.678c-1.73 3.963 1.175 8.398 5.499 8.398h70.52a6.001 6.001 0 0 0 5.531-3.673l13.748-32.678ZM343.381 16.268c-36.533 0-64.517 13.188-82.781 38.228-2.728 3.74.108 8.74 4.737 8.74h155.4c4.629 0 7.465-5 4.741-8.743-18.223-25.038-45.979-38.225-82.097-38.225Zm100.064 75.918c-.721-2.515-3.046-4.205-5.662-4.205h-67.784c-4.333 0-7.37 4.52-6.358 8.734 2.912 12.116 4.038 30.112 4.038 55.419 0 13.255-.296 24.44-1.007 33.91-.267 3.555 2.509 6.643 6.074 6.643h70.08c2.932 0 5.444-2.118 5.859-5.021 1.572-10.984 2.432-22.828 2.432-35.532 0-22.644-2.738-42.747-7.672-59.948ZM343.381 288c37.126 0 65.244-13.881 83.505-40.115 2.621-3.765-.228-8.687-4.815-8.687H264.167c-4.572 0-7.423 4.895-4.824 8.657C277.472 274.109 305.825 288 343.381 288Zm-24.757-135.866c0-25.165 1.129-43.138 4.161-55.358 1.049-4.228-1.988-8.795-6.345-8.795h-67.973c-2.591 0-4.9 1.658-5.636 4.142-5.097 17.215-7.645 37.339-7.645 60.011 0 12.704.86 24.548 2.431 35.532.416 2.903 2.927 5.021 5.86 5.021h70.079c3.565 0 6.342-3.088 6.075-6.643-.711-9.47-1.007-20.655-1.007-33.91ZM589.382 239.198a6 6 0 0 0-6 6v34.511a6 6 0 0 0 6 6h68.229a6 6 0 0 0 6-6v-34.511a6 6 0 0 0-6-6h-68.229Zm80.459-68.048a6 6 0 0 1-6-6v-39.322a6 6 0 0 0-6-6h-68.23a6 6 0 0 0-6 6v39.322a6 6 0 0 1-6 6h-10.907c-4.28 0-7.184-4.353-5.539-8.305l27.7-66.559c1.645-3.951-1.259-8.305-5.539-8.305h-71.191a6 6 0 0 0-5.505 3.615l-36.45 84.141a6.004 6.004 0 0 0-.494 2.385v8.565a6 6 0 0 0 6 6h212.642a6 6 0 0 0 6-6v-9.537a6 6 0 0 0-6-6h-18.487Zm-52.14-144.265c1.664-3.954-1.24-8.326-5.53-8.326h-70.018a6 6 0 0 0-5.499 3.601l-14.251 32.678c-1.729 3.963 1.176 8.398 5.499 8.398h70.521a6 6 0 0 0 5.53-3.673l13.748-32.678ZM106.071 63.236c4.282 0 7.185 4.357 5.538 8.309l-5.313 12.745a6 6 0 0 1-5.538 3.69h-70.97c-4.323 0-7.227-4.431-5.502-8.394l5.549-12.745a6 6 0 0 1 5.501-3.605h70.735Z"/><path d="M424.298 87.98h-81.376c-3.896-8.706-9.398-12.371-17.421-12.371-8.252 0-13.983 3.666-17.65 12.372h-81.605c2.98-9.165 6.648-17.413 10.774-24.745h176.504c4.356 7.332 7.794 15.58 10.774 24.745ZM575.756 63.236c4.282 0 7.186 4.357 5.538 8.309l-5.313 12.745a5.999 5.999 0 0 1-5.538 3.69h-70.97c-4.323 0-7.227-4.431-5.501-8.394l5.549-12.745a6 6 0 0 1 5.501-3.605h70.734ZM242.253 192.687a6 6 0 0 1 6 6v29.241a6 6 0 0 1-6 6H220.4a2.634 2.634 0 0 0-2.634 2.635 2.635 2.635 0 0 1-2.635 2.635h-74.96a2.635 2.635 0 0 1-2.635-2.635 2.635 2.635 0 0 0-2.635-2.635H29.84a6 6 0 0 1-6-6v-29.241a6 6 0 0 1 6-6h212.413ZM471.518 192.687c-2.98 17.871-8.252 33.451-15.587 46.511H277.592c-7.335-13.06-12.607-28.64-15.587-46.511h81.834c2.751 25.661 9.627 35.971 23.152 35.971 13.066 0 19.942-10.31 22.693-35.971h81.834ZM718.167 192.687v41.241h-30.488v5.27h-80.458v-5.27H493.524v-41.241h224.643ZM45.503 118.682H12.031a5.155 5.155 0 1 0 0 10.31h33.472a5.155 5.155 0 1 0 0-10.31ZM394.039 121.661h-43.782v21.537h43.782v-21.537ZM673.927 136.783h-43.782v21.537h43.782v-21.537Z"/></g><g fill="#E81B88" opacity=".26"><path d="M139.407 239.198a6 6 0 0 0-6 6v34.511a6 6 0 0 0 6 6h68.229a6 6 0 0 0 6-6v-34.511a6 6 0 0 0-6-6h-68.229Zm80.229-68.048a6 6 0 0 1-6-6v-39.322a6 6 0 0 0-6-6h-68.229a6 6 0 0 0-6 6v39.322a6 6 0 0 1-6 6H116.5c-4.28 0-7.184-4.353-5.539-8.305l27.7-66.559c1.645-3.951-1.259-8.305-5.539-8.305h-71.19a6 6 0 0 0-5.507 3.615l-36.45 84.141a6.003 6.003 0 0 0-.494 2.385v8.565a6 6 0 0 0 6 6h212.643a6 6 0 0 0 6-6v-9.537a6 6 0 0 0-6-6h-18.488ZM167.497 26.885c1.664-3.954-1.24-8.326-5.53-8.326H91.949a6 6 0 0 0-5.5 3.601L72.2 54.838c-1.729 3.963 1.175 8.398 5.5 8.398h70.52a6 6 0 0 0 5.53-3.673l13.748-32.678ZM362.862 16.268c-36.533 0-64.517 13.188-82.78 38.228-2.728 3.74.107 8.74 4.736 8.74h155.468c4.613 0 7.452-4.972 4.755-8.716-18.057-25.055-45.841-38.252-82.179-38.252Zm100.091 75.855c-.736-2.484-3.045-4.142-5.636-4.142H389.48c-4.333 0-7.37 4.52-6.357 8.734 2.912 12.116 4.037 30.112 4.037 55.419 0 13.255-.296 24.44-1.007 33.91-.267 3.555 2.51 6.643 6.075 6.643h70.079c2.933 0 5.444-2.118 5.86-5.021 1.571-10.984 2.431-22.828 2.431-35.532 0-22.672-2.548-42.796-7.645-60.01ZM362.862 288c37.126 0 65.245-13.881 83.506-40.115 2.62-3.765-.229-8.687-4.815-8.687h-157.84c-4.587 0-7.435 4.922-4.811 8.684C297.201 274.118 325.527 288 362.862 288Zm-24.756-135.866c0-25.165 1.128-43.138 4.16-55.358 1.05-4.228-1.988-8.795-6.344-8.795h-67.974c-2.591 0-4.9 1.658-5.635 4.142-5.097 17.215-7.646 37.339-7.646 60.011 0 12.704.86 24.548 2.432 35.532.415 2.903 2.927 5.021 5.86 5.021h70.079c3.565 0 6.341-3.088 6.074-6.643-.71-9.47-1.006-20.655-1.006-33.91ZM609.093 239.198a6 6 0 0 0-6 6v34.511a6 6 0 0 0 6 6h68.229a6 6 0 0 0 6-6v-34.511a6 6 0 0 0-6-6h-68.229Zm80.229-68.048a6 6 0 0 1-6-6v-39.322a6 6 0 0 0-6-6h-68.229a6 6 0 0 0-6 6v39.322a6 6 0 0 1-6 6h-10.907c-4.28 0-7.184-4.353-5.539-8.305l27.7-66.559c1.644-3.951-1.259-8.305-5.54-8.305h-71.19a6 6 0 0 0-5.506 3.615l-36.45 84.141a6.004 6.004 0 0 0-.494 2.385v8.565a6 6 0 0 0 6 6h212.642a6 6 0 0 0 6-6v-9.537a6 6 0 0 0-6-6h-18.487ZM637.235 26.861c1.643-3.951-1.261-8.302-5.54-8.302h-70.06a6 6 0 0 0-5.5 3.601l-14.251 32.678c-1.728 3.963 1.176 8.398 5.5 8.398h70.73a6 6 0 0 0 5.541-3.697l13.58-32.678Z"/><path d="M125.552 63.236c4.282 0 7.186 4.357 5.538 8.309l-5.313 12.745a6 6 0 0 1-5.538 3.69h-70.97c-4.323 0-7.227-4.431-5.502-8.394l5.55-12.745a6 6 0 0 1 5.5-3.605h70.735ZM444.009 87.98h-81.376c-3.896-8.706-9.398-12.371-17.421-12.371-8.252 0-13.983 3.666-17.65 12.372h-81.605c2.98-9.165 6.648-17.413 10.774-24.745h176.275c4.355 7.332 8.023 15.58 11.003 24.745ZM595.467 63.236c4.282 0 7.186 4.357 5.538 8.309l-5.313 12.745a6 6 0 0 1-5.538 3.69h-71.048c-4.302 0-7.206-4.393-5.52-8.351l5.431-12.745a6 6 0 0 1 5.52-3.648h70.93ZM261.965 192.687a6 6 0 0 1 6 6v29.241a6 6 0 0 1-6 6h-21.852a2.635 2.635 0 0 0-2.635 2.635 2.635 2.635 0 0 1-2.635 2.635h-74.959a2.635 2.635 0 0 1-2.635-2.635 2.635 2.635 0 0 0-2.635-2.635H49.324a6 6 0 0 1-6-6v-29.241a6 6 0 0 1 6-6h212.641ZM491.231 192.687c-2.98 17.871-8.252 33.451-15.587 46.511H297.305c-7.335-13.06-12.607-28.64-15.587-46.511h81.834c2.75 25.661 9.627 35.971 23.152 35.971 13.066 0 19.942-10.31 22.693-35.971h81.834ZM731.649 192.687a6 6 0 0 1 6 6v29.241a6 6 0 0 1-6 6h-21.852a2.635 2.635 0 0 0-2.635 2.635 2.635 2.635 0 0 1-2.635 2.635h-74.96a2.634 2.634 0 0 1-2.634-2.635 2.635 2.635 0 0 0-2.635-2.635H519.007a6 6 0 0 1-6-6v-29.241a6 6 0 0 1 6-6h212.642ZM65.216 118.682H31.744a5.155 5.155 0 1 0 0 10.31h33.472a5.155 5.155 0 1 0 0-10.31ZM413.753 121.661h-43.782v21.537h43.782v-21.537ZM693.41 136.783h-43.782v21.537h43.782v-21.537Z"/></g><g fill="#005DFF" opacity=".06"><path d="M195.76 239.198v46.51h80.229v-46.51H195.76Zm80.229-68.048v-51.322H195.76v51.322h-25.903l34.613-83.17h-84.126l-38.51 88.898v15.809h224.642V171.15h-30.487ZM233.353 18.558h-82.98l-19.485 44.678h83.668l18.797-44.678ZM425.215 16.267c-40.574 0-70.602 16.268-88.482 46.97h176.275c-17.65-30.702-47.679-46.97-87.793-46.97Zm98.796 71.714h-81.375c5.043 11.456 6.877 31.847 6.877 64.153 0 16.496-.459 29.785-1.605 40.553h81.834c2.063-12.372 3.209-25.89 3.209-40.553 0-24.516-2.98-46.053-8.94-64.153ZM425.215 288c41.031 0 71.06-16.955 88.939-48.802H335.816C353.696 271.045 383.954 288 425.215 288Zm-24.757-135.866c0-32.077 1.834-52.468 7.106-64.153h-81.605c-5.96 18.1-8.939 39.637-8.939 64.153 0 14.663 1.146 28.181 3.209 40.553h81.834c-1.147-10.768-1.605-24.057-1.605-40.553ZM665.445 239.198v46.51h80.229v-46.51h-80.229Zm80.229-68.048v-51.322h-80.229v51.322h-25.902l34.613-83.17H590.03l-38.51 88.898v15.809h224.642V171.15h-30.488ZM703.038 18.558h-82.98l-19.484 44.678h83.668l18.796-44.678Z"/><path d="m196.906 63.236-10.315 24.745h-84.126l10.773-24.745h83.668ZM503.581 80.204c1.487 3.795-1.403 7.777-5.48 7.777h-69.227c-2.365 0-4.456-1.426-5.675-3.453-3.747-6.234-8.767-8.92-15.634-8.92-7.022 0-12.219 2.655-15.872 8.81-1.231 2.077-3.348 3.563-5.762 3.563H316.57c-4.077 0-6.965-3.98-5.485-7.78a134.303 134.303 0 0 1 6.321-13.884c1.01-1.917 3.018-3.08 5.185-3.08h169.353c2.117 0 4.088 1.109 5.11 2.963 2.404 4.364 4.58 9.031 6.527 14.004ZM666.82 63.236l-10.315 24.745h-84.126l10.544-24.745h83.897ZM324.316 192.687a6 6 0 0 1 6 6v29.241a6 6 0 0 1-6 6h-21.852a2.635 2.635 0 0 0-2.635 2.635 2.635 2.635 0 0 1-2.635 2.635h-74.96a2.635 2.635 0 0 1-2.635-2.635 2.634 2.634 0 0 0-2.634-2.635H111.674a6 6 0 0 1-6-6v-29.241a6 6 0 0 1 6-6h212.642ZM553.583 192.687c-2.979 17.871-8.252 33.451-15.587 46.511H359.658c-7.336-13.06-12.608-28.64-15.588-46.511h81.834c2.751 25.661 9.628 35.971 23.152 35.971 13.066 0 19.943-10.31 22.694-35.971h81.833ZM800.001 192.687v41.241h-30.488v5.27h-80.229v-5.27H575.358v-41.241h224.643ZM132.722 118.682H88.939v10.311h43.783v-10.311ZM476.105 121.661h-43.783v21.537h43.783v-21.537ZM755.761 136.783h-43.782v21.537h43.782v-21.537Z"/></g><g fill="#005DFF" opacity=".22"><path d="M183.192 239.198a6 6 0 0 0-6 6v34.51a6 6 0 0 0 6 6h68.229a6 6 0 0 0 6-6v-34.51a6 6 0 0 0-6-6h-68.229Zm80.229-68.048a6 6 0 0 1-6-6v-39.322a6 6 0 0 0-6-6h-68.229a6 6 0 0 0-6 6v39.322a6 6 0 0 1-6 6h-10.907c-4.281 0-7.184-4.353-5.54-8.305l27.701-66.559c1.644-3.952-1.259-8.305-5.54-8.305h-71.181a6 6 0 0 0-5.511 3.627l-36.23 84.134a6 6 0 0 0-.489 2.373v8.572a6 6 0 0 0 6 6h212.642a6 6 0 0 0 6-6v-9.537a6 6 0 0 0-6-6h-18.716ZM211.282 26.885c1.663-3.955-1.241-8.327-5.531-8.327h-70.017a6 6 0 0 0-5.5 3.602l-14.251 32.678c-1.728 3.963 1.176 8.398 5.5 8.398h70.52a6.001 6.001 0 0 0 5.531-3.673l13.748-32.678ZM406.648 16.267c-36.533 0-64.517 13.19-82.78 38.229-2.728 3.74.107 8.74 4.736 8.74h155.468c4.613 0 7.452-4.973 4.755-8.716-18.057-25.055-45.841-38.253-82.179-38.253Zm100.091 75.856c-.736-2.484-3.045-4.142-5.635-4.142h-67.838c-4.333 0-7.37 4.52-6.357 8.733 2.912 12.117 4.037 30.113 4.037 55.42 0 13.255-.296 24.439-1.007 33.909-.267 3.555 2.51 6.644 6.075 6.644h70.079c2.933 0 5.445-2.118 5.86-5.022 1.571-10.984 2.432-22.828 2.432-35.531 0-22.672-2.549-42.797-7.646-60.011ZM406.648 288c37.126 0 65.245-13.881 83.506-40.115 2.62-3.765-.229-8.687-4.815-8.687h-157.84c-4.587 0-7.435 4.922-4.811 8.684C340.987 274.118 369.313 288 406.648 288Zm-24.756-135.866c0-25.166 1.128-43.139 4.161-55.358 1.049-4.228-1.988-8.795-6.345-8.795h-67.974c-2.59 0-4.9 1.658-5.635 4.142-5.097 17.214-7.646 37.339-7.646 60.011 0 12.703.86 24.547 2.432 35.531.415 2.904 2.927 5.022 5.86 5.022h70.308c3.565 0 6.341-3.088 6.052-6.642-.769-9.47-1.213-20.655-1.213-33.911ZM652.878 239.198a6 6 0 0 0-6 6v34.51a6 6 0 0 0 6 6h68.229a6 6 0 0 0 6-6v-34.51a6 6 0 0 0-6-6h-68.229Zm80.459-68.048a6 6 0 0 1-6-6v-39.322a6 6 0 0 0-6-6h-68.23a6 6 0 0 0-6 6v39.322a6 6 0 0 1-6 6h-10.906c-4.281 0-7.184-4.353-5.54-8.305l27.7-66.559c1.645-3.952-1.259-8.305-5.539-8.305h-71.191a6 6 0 0 0-5.505 3.615l-36.45 84.141a6 6 0 0 0-.494 2.385v8.565a6 6 0 0 0 6 6h212.642a6 6 0 0 0 6-6v-9.537a6 6 0 0 0-6-6h-18.487Zm-52.14-144.265c1.664-3.955-1.24-8.327-5.53-8.327h-70.018a6 6 0 0 0-5.499 3.602l-14.251 32.678c-1.729 3.963 1.176 8.398 5.5 8.398h70.52a6 6 0 0 0 5.53-3.673l13.748-32.678Z"/><path d="m178.567 63.236-10.315 24.745H84.126L94.67 63.236h83.897ZM485.014 80.204c1.487 3.795-1.403 7.777-5.48 7.777h-69.227c-2.366 0-4.457-1.426-5.675-3.453-3.748-6.234-8.768-8.92-15.635-8.92-7.022 0-12.218 2.655-15.871 8.81-1.232 2.077-3.349 3.563-5.762 3.563h-69.362c-4.076 0-6.964-3.98-5.485-7.78a134.515 134.515 0 0 1 6.321-13.884c1.01-1.917 3.019-3.08 5.186-3.08h169.353c2.117 0 4.088 1.109 5.11 2.963 2.404 4.364 4.579 9.031 6.527 14.004ZM648.253 63.236l-10.315 24.745h-84.126l10.773-24.745h83.668ZM305.748 192.687a6 6 0 0 1 6 6v29.241a6 6 0 0 1-6 6h-21.853a2.635 2.635 0 0 0-2.635 2.635 2.634 2.634 0 0 1-2.634 2.635h-74.96a2.635 2.635 0 0 1-2.635-2.635 2.635 2.635 0 0 0-2.635-2.635H93.106a6 6 0 0 1-6-6v-29.241a6 6 0 0 1 6-6h212.642ZM535.014 192.687c-2.98 17.871-8.252 33.451-15.587 46.511H341.088c-7.335-13.06-12.607-28.64-15.587-46.511h81.834c2.751 25.661 9.627 35.971 23.152 35.971 13.066 0 19.942-10.31 22.693-35.971h81.834ZM775.433 192.687a6 6 0 0 1 6 6v29.241a6 6 0 0 1-6 6h-21.852a2.635 2.635 0 0 0-2.635 2.635 2.635 2.635 0 0 1-2.635 2.635h-74.959a2.635 2.635 0 0 1-2.635-2.635 2.635 2.635 0 0 0-2.635-2.635H563.021a6 6 0 0 1-6-6v-29.241a6 6 0 0 1 6-6h212.412ZM114.154 118.682H70.372v10.311h43.782v-10.311ZM457.535 121.661h-43.782v21.537h43.782v-21.537ZM731.423 136.783h-31.782a6 6 0 0 0-6 6v9.537a6 6 0 0 0 6 6h31.782a6 6 0 0 0 6-6v-9.537a6 6 0 0 0-6-6Z"/></g><g fill="#E81B88" opacity=".55"><path d="M154.768 239.198a6 6 0 0 0-6 6v34.511a6 6 0 0 0 6 6h68.229a6 6 0 0 0 6-6v-34.511a6 6 0 0 0-6-6h-68.229Zm80.229-68.048a6 6 0 0 1-6-6v-39.322a6 6 0 0 0-6-6h-68.229a6 6 0 0 0-6 6v39.322a6 6 0 0 1-6 6h-10.907c-4.28 0-7.184-4.353-5.539-8.305l27.7-66.559c1.644-3.951-1.259-8.305-5.54-8.305h-71.18a6 6 0 0 0-5.512 3.627l-36.23 84.134a6.003 6.003 0 0 0-.489 2.373v8.572a6 6 0 0 0 6 6h212.642a6 6 0 0 0 6-6v-9.537a6 6 0 0 0-6-6h-18.716ZM182.858 26.885c1.663-3.954-1.24-8.326-5.531-8.326H107.31a6 6 0 0 0-5.5 3.601L87.56 54.838c-1.73 3.963 1.175 8.398 5.499 8.398h70.52a6.001 6.001 0 0 0 5.531-3.673l13.748-32.678ZM378.223 16.268c-36.533 0-64.517 13.188-82.78 38.228-2.728 3.74.108 8.74 4.736 8.74h155.63c4.629 0 7.465-5 4.741-8.743-18.225-25.038-46.002-38.225-82.327-38.225Zm100.291 75.92c-.718-2.517-3.043-4.207-5.659-4.207h-67.784c-4.333 0-7.37 4.52-6.358 8.734 2.912 12.116 4.038 30.112 4.038 55.419 0 13.255-.296 24.44-1.007 33.91-.267 3.555 2.509 6.643 6.074 6.643h70.08c2.932 0 5.444-2.118 5.859-5.021 1.572-10.984 2.432-22.828 2.432-35.532-.212-22.644-2.77-42.746-7.675-59.947ZM378.223 288c37.127 0 65.245-13.881 83.506-40.115 2.62-3.765-.228-8.687-4.815-8.687h-157.84c-4.586 0-7.435 4.922-4.811 8.684C312.562 274.118 340.888 288 378.223 288Zm-24.756-135.866c0-25.165 1.129-43.138 4.161-55.358 1.049-4.228-1.988-8.795-6.345-8.795h-67.974c-2.59 0-4.899 1.658-5.635 4.142-5.097 17.215-7.646 37.339-7.646 60.011 0 12.704.861 24.548 2.432 35.532.415 2.903 2.927 5.021 5.86 5.021h70.219c3.514 0 6.273-3.006 6.031-6.512-.655-9.498-1.103-20.724-1.103-34.041ZM624.453 239.198a6 6 0 0 0-6 6v34.511a6 6 0 0 0 6 6h68.23a6 6 0 0 0 6-6v-34.511a6 6 0 0 0-6-6h-68.23Zm80.459-68.048a6 6 0 0 1-6-6v-39.322a6 6 0 0 0-6-6h-68.229a6 6 0 0 0-6 6v39.322a6 6 0 0 1-6 6h-10.907c-4.281 0-7.184-4.353-5.54-8.305l27.701-66.559c1.644-3.951-1.259-8.305-5.54-8.305h-71.19a6 6 0 0 0-5.506 3.615l-36.45 84.141a6.004 6.004 0 0 0-.494 2.385v8.565a6 6 0 0 0 6 6h212.642a6 6 0 0 0 6-6v-9.537a6 6 0 0 0-6-6h-18.487Zm-52.14-144.265c1.664-3.954-1.24-8.326-5.53-8.326h-70.017a6 6 0 0 0-5.5 3.601l-14.251 32.678c-1.728 3.963 1.176 8.398 5.5 8.398h70.52a6.001 6.001 0 0 0 5.531-3.673l13.747-32.678Z"/><path d="M141.142 63.236c4.282 0 7.186 4.357 5.538 8.309l-5.313 12.745a6 6 0 0 1-5.538 3.69H64.781c-4.302 0-7.206-4.393-5.52-8.351l5.431-12.745a6 6 0 0 1 5.52-3.648h70.93ZM459.369 87.98h-81.375c-3.897-8.706-9.399-12.371-17.421-12.371-8.253 0-13.983 3.666-17.651 12.372h-81.605c2.98-9.165 6.648-17.413 10.774-24.745h176.275c4.356 7.332 8.023 15.58 11.003 24.745ZM610.827 63.236c4.282 0 7.186 4.357 5.539 8.309l-5.313 12.745a6 6 0 0 1-5.538 3.69h-70.971c-4.322 0-7.227-4.431-5.501-8.394l5.549-12.745a6 6 0 0 1 5.501-3.605h70.734ZM277.323 192.687a6 6 0 0 1 6 6v29.241a6 6 0 0 1-6 6H255.47a2.634 2.634 0 0 0-2.634 2.635 2.635 2.635 0 0 1-2.635 2.635h-74.96a2.635 2.635 0 0 1-2.635-2.635 2.635 2.635 0 0 0-2.635-2.635H64.681a6 6 0 0 1-6-6v-29.241a6 6 0 0 1 6-6h212.642ZM506.589 192.687c-2.98 17.871-8.252 33.451-15.587 46.511H312.664c-7.336-13.06-12.608-28.64-15.588-46.511h82.063c2.751 25.661 9.628 35.971 23.152 35.971 13.066 0 19.943-10.31 22.694-35.971h81.604ZM747.009 192.687a6 6 0 0 1 6 6v29.241a6 6 0 0 1-6 6h-21.853a2.635 2.635 0 0 0-2.635 2.635 2.634 2.634 0 0 1-2.634 2.635h-74.96a2.635 2.635 0 0 1-2.635-2.635 2.635 2.635 0 0 0-2.635-2.635H534.596a6 6 0 0 1-6-6v-29.241a6 6 0 0 1 6-6h212.413ZM80.574 118.682H47.102a5.155 5.155 0 1 0 0 10.31h33.472a5.155 5.155 0 1 0 0-10.31ZM423.11 121.661h-31.782a6 6 0 0 0-6 6v9.537a6 6 0 0 0 6 6h31.782a6 6 0 0 0 6-6v-9.537a6 6 0 0 0-6-6ZM708.997 136.783h-43.782v21.537h43.782v-21.537Z"/></g><g fill="#005DFF" opacity=".61"><path d="M172.646 239.198a6 6 0 0 0-6 6v34.51a6 6 0 0 0 6 6h68.23a6 6 0 0 0 6-6v-34.51a6 6 0 0 0-6-6h-68.23Zm80.23-68.048a6 6 0 0 1-6-6v-39.322a6 6 0 0 0-6-6h-68.23a6 6 0 0 0-6 6v39.322a6 6 0 0 1-6 6H149.74c-4.281 0-7.184-4.353-5.54-8.305l27.7-66.559c1.645-3.952-1.259-8.305-5.539-8.305h-71.19a6 6 0 0 0-5.506 3.615l-36.45 84.141a5.999 5.999 0 0 0-.494 2.385v8.565a6 6 0 0 0 6 6h212.642a6 6 0 0 0 6-6v-9.537a6 6 0 0 0-6-6h-18.487Zm-52.14-144.265c1.664-3.955-1.24-8.327-5.53-8.327h-70.017a6 6 0 0 0-5.5 3.602l-14.251 32.678c-1.729 3.963 1.176 8.398 5.5 8.398h70.52a5.999 5.999 0 0 0 5.53-3.673l13.748-32.678ZM396.101 16.267c-36.533 0-64.517 13.19-82.78 38.229-2.728 3.74.107 8.74 4.736 8.74h155.468c4.614 0 7.453-4.973 4.755-8.716-18.057-25.055-45.841-38.253-82.179-38.253Zm100.091 75.856c-.735-2.484-3.045-4.142-5.635-4.142h-67.838c-4.332 0-7.369 4.52-6.357 8.733 2.912 12.117 4.037 30.113 4.037 55.42 0 13.255-.296 24.439-1.007 33.909-.267 3.555 2.51 6.644 6.075 6.644h70.079c2.933 0 5.445-2.118 5.86-5.022 1.571-10.984 2.432-22.828 2.432-35.531 0-22.672-2.549-42.797-7.646-60.011ZM396.101 288c37.127 0 65.245-13.881 83.506-40.115 2.62-3.765-.228-8.687-4.815-8.687h-157.84c-4.587 0-7.435 4.922-4.811 8.684C330.44 274.118 358.766 288 396.101 288Zm-24.756-135.866c0-25.166 1.128-43.139 4.161-55.358 1.049-4.228-1.988-8.795-6.345-8.795h-67.974c-2.59 0-4.899 1.658-5.635 4.142-5.097 17.214-7.646 37.339-7.646 60.011 0 12.703.861 24.547 2.432 35.531.415 2.904 2.927 5.022 5.86 5.022h70.079c3.565 0 6.342-3.089 6.075-6.644-.711-9.47-1.007-20.654-1.007-33.909ZM642.332 239.198a6 6 0 0 0-6 6v34.51a6 6 0 0 0 6 6h68.229a6 6 0 0 0 6-6v-34.51a6 6 0 0 0-6-6h-68.229Zm80.459-68.048a6 6 0 0 1-6-6v-39.322a6 6 0 0 0-6-6h-68.23a6 6 0 0 0-6 6v39.322a6 6 0 0 1-6 6h-10.906c-4.281 0-7.184-4.353-5.54-8.305l27.7-66.559c1.645-3.952-1.259-8.305-5.539-8.305h-71.191a6 6 0 0 0-5.505 3.615l-36.45 84.141a6 6 0 0 0-.494 2.385v8.565a6 6 0 0 0 6 6h212.642a6 6 0 0 0 6-6v-9.537a6 6 0 0 0-6-6h-18.487Zm-52.14-144.265c1.664-3.955-1.24-8.327-5.53-8.327h-70.017a6 6 0 0 0-5.5 3.602l-14.251 32.678c-1.729 3.963 1.176 8.398 5.5 8.398h70.52a5.999 5.999 0 0 0 5.53-3.673l13.748-32.678Z"/><path d="m167.792 63.236-10.086 24.745H73.58l10.544-24.745h83.668ZM477.248 87.98h-81.375c-3.897-8.706-9.399-12.371-17.422-12.371-8.252 0-13.982 3.666-17.65 12.372h-81.605c2.98-9.165 6.648-17.413 10.774-24.745h176.275c4.356 7.332 8.023 15.58 11.003 24.745ZM637.707 63.236l-10.315 24.745h-84.126l10.544-24.745h83.897ZM295.204 192.687a6 6 0 0 1 6 6v29.241a6 6 0 0 1-6 6h-21.853a2.635 2.635 0 0 0-2.635 2.635 2.634 2.634 0 0 1-2.634 2.635h-74.96a2.635 2.635 0 0 1-2.635-2.635 2.635 2.635 0 0 0-2.635-2.635H82.562a6 6 0 0 1-6-6v-29.241a6 6 0 0 1 6-6h212.642ZM517.387 192.687c3.708 0 6.536 3.333 5.782 6.963-2.83 13.641-7.073 25.832-12.615 36.46-1.003 1.924-3.014 3.088-5.183 3.088H334.056c-2.169 0-4.18-1.164-5.183-3.088-5.542-10.628-9.785-22.819-12.615-36.46-.754-3.63 2.075-6.963 5.782-6.963h69.36c3.066 0 5.622 2.324 6.058 5.359 3.119 21.748 9.944 30.612 22.485 30.612 12.115 0 18.909-8.864 22.027-30.612.435-3.035 2.991-5.359 6.057-5.359h69.36ZM764.888 192.687a6 6 0 0 1 6 6v29.241a6 6 0 0 1-6 6h-21.852a2.635 2.635 0 0 0-2.635 2.635 2.635 2.635 0 0 1-2.635 2.635h-74.959a2.635 2.635 0 0 1-2.635-2.635 2.635 2.635 0 0 0-2.635-2.635H552.246a6 6 0 0 1-6-6v-29.241a6 6 0 0 1 6-6h212.642ZM103.608 118.682H59.826v10.311h43.782v-10.311ZM446.992 121.661H403.21v21.537h43.782v-21.537ZM720.649 136.783h-31.783a6 6 0 0 0-6 6v9.537a6 6 0 0 0 6 6h31.783a6 6 0 0 0 6-6v-9.537a6 6 0 0 0-6-6Z"/></g><path fill="#fff" d="M165.313 239.198a6 6 0 0 0-6 6v34.51a6 6 0 0 0 6 6h68.229a6 6 0 0 0 6-6v-34.51a6 6 0 0 0-6-6h-68.229Zm80.458-68.048a6 6 0 0 1-6-6v-39.322a6 6 0 0 0-6-6h-68.229a6 6 0 0 0-6 6v39.322a6 6 0 0 1-6 6h-10.907c-4.28 0-7.184-4.353-5.539-8.305l27.7-66.559c1.645-3.952-1.259-8.305-5.539-8.305H88.066a6 6 0 0 0-5.506 3.615l-36.45 84.141a5.999 5.999 0 0 0-.494 2.385v8.565a6 6 0 0 0 6 6h212.642a6 6 0 0 0 6-6v-9.537a6 6 0 0 0-6-6h-18.487ZM193.632 26.885c1.664-3.955-1.24-8.327-5.531-8.327h-70.017a6 6 0 0 0-5.5 3.602l-14.25 32.678c-1.73 3.963 1.175 8.398 5.499 8.398h70.52a6.001 6.001 0 0 0 5.531-3.673l13.748-32.678ZM388.997 16.268c-36.533 0-64.517 13.188-82.781 38.228-2.727 3.74.108 8.74 4.737 8.74h155.4c4.629 0 7.465-5 4.741-8.743-18.223-25.038-45.979-38.225-82.097-38.225Zm100.064 75.918c-.721-2.515-3.045-4.205-5.662-4.205h-67.784c-4.333 0-7.37 4.52-6.357 8.734 2.911 12.116 4.037 30.112 4.037 55.419 0 13.255-.296 24.44-1.007 33.91-.267 3.555 2.51 6.643 6.075 6.643h70.079c2.933 0 5.444-2.118 5.86-5.021 1.571-10.984 2.431-22.828 2.431-35.532 0-22.644-2.738-42.747-7.672-59.948ZM388.997 288c37.126 0 65.244-13.881 83.505-40.115 2.621-3.765-.228-8.687-4.815-8.687H309.784c-4.573 0-7.423 4.895-4.825 8.657C323.089 274.109 351.441 288 388.997 288ZM364.24 152.134c0-25.165 1.129-43.138 4.161-55.358 1.05-4.228-1.988-8.795-6.344-8.795h-67.974c-2.591 0-4.9 1.658-5.636 4.142-5.097 17.215-7.645 37.339-7.645 60.011 0 12.704.86 24.548 2.431 35.532.416 2.903 2.927 5.021 5.86 5.021h70.079c3.565 0 6.342-3.088 6.075-6.643-.711-9.47-1.007-20.655-1.007-33.91ZM634.998 239.198a6 6 0 0 0-6 6v34.511a6 6 0 0 0 6 6h68.229a6.001 6.001 0 0 0 6.001-6v-34.511a6 6 0 0 0-6-6h-68.23Zm80.459-68.048a6 6 0 0 1-6-6v-39.322a6 6 0 0 0-6-6h-68.23a6 6 0 0 0-6 6v39.322a6 6 0 0 1-6 6h-10.906c-4.281 0-7.184-4.353-5.54-8.305l27.7-66.559c1.645-3.951-1.259-8.305-5.539-8.305h-71.191a6 6 0 0 0-5.505 3.615l-36.45 84.141a6.004 6.004 0 0 0-.494 2.385v8.565a6 6 0 0 0 6 6h212.642a6 6 0 0 0 6-6v-9.537a6 6 0 0 0-6-6h-18.487Zm-52.14-144.265c1.664-3.954-1.24-8.326-5.53-8.326H587.77a6 6 0 0 0-5.5 3.601l-14.251 32.678c-1.729 3.963 1.176 8.398 5.5 8.398h70.52a5.999 5.999 0 0 0 5.53-3.673l13.748-32.678Z"/><path fill="#fff" d="m160.688 63.236-10.315 24.745H66.247l10.774-24.745h83.667ZM467.172 80.19c1.458 3.807-1.44 7.79-5.517 7.79h-69.227c-2.366 0-4.456-1.425-5.675-3.452-3.748-6.234-8.767-8.92-15.635-8.92-7.022 0-12.218 2.655-15.871 8.81-1.232 2.077-3.348 3.563-5.762 3.563h-69.362c-4.076 0-6.964-3.98-5.485-7.78a134.515 134.515 0 0 1 6.321-13.884c1.01-1.917 3.019-3.08 5.186-3.08h169.443c2.068 0 4.004 1.057 5.027 2.855 2.497 4.39 4.638 9.09 6.557 14.098ZM621.372 63.236c4.282 0 7.186 4.357 5.538 8.309l-5.312 12.745a6 6 0 0 1-5.538 3.69h-70.971c-4.322 0-7.227-4.431-5.501-8.394l5.549-12.745a6 6 0 0 1 5.501-3.605h70.734ZM287.868 192.687a6 6 0 0 1 6 6v29.241a6 6 0 0 1-6 6h-21.853a2.634 2.634 0 0 0-2.634 2.635 2.635 2.635 0 0 1-2.635 2.635h-74.96a2.635 2.635 0 0 1-2.635-2.635 2.635 2.635 0 0 0-2.635-2.635H75.226a6 6 0 0 1-6-6v-29.241a6 6 0 0 1 6-6h212.642ZM510.052 192.687c3.708 0 6.536 3.333 5.783 6.963-2.831 13.641-7.074 25.832-12.616 36.46-1.003 1.924-3.014 3.088-5.183 3.088H326.721c-2.169 0-4.18-1.164-5.183-3.088-5.542-10.628-9.785-22.819-12.615-36.46-.753-3.63 2.075-6.963 5.782-6.963h69.36c3.066 0 5.622 2.324 6.058 5.359 3.119 21.748 9.944 30.612 22.485 30.612 12.115 0 18.909-8.864 22.027-30.612.435-3.035 2.991-5.359 6.058-5.359h69.359ZM757.554 192.687a6 6 0 0 1 6 6v29.241a6 6 0 0 1-6 6H735.93a2.634 2.634 0 0 0-2.634 2.635 2.635 2.635 0 0 1-2.635 2.635h-75.189a2.635 2.635 0 0 1-2.635-2.635 2.635 2.635 0 0 0-2.635-2.635H545.141a6 6 0 0 1-6-6v-29.241a6 6 0 0 1 6-6h212.413ZM96.275 118.682H52.493v10.311h43.782v-10.311ZM433.656 121.661h-31.782a6 6 0 0 0-6 6v9.537a6 6 0 0 0 6 6h31.782a6 6 0 0 0 6-6v-9.537a6 6 0 0 0-6-6ZM713.543 136.783h-31.782a6 6 0 0 0-6 6v9.537a6 6 0 0 0 6 6h31.782a6 6 0 0 0 6-6v-9.537a6 6 0 0 0-6-6Z"/><path fill="#E81B88" d="M145.1 23.141H40.572v17.184H145.1V23.14Z" opacity=".55"/><path fill="#E81B88" d="M222.007 58.425h-66.938a3.78 3.78 0 0 0 0 7.56h66.938a3.78 3.78 0 1 0 0-7.56ZM533.298 0H433.81a3.78 3.78 0 1 0 0 7.56h99.488a3.78 3.78 0 1 0 0-7.56ZM520.803 101.041h-48.366v15.351h48.366v-15.351Z" opacity=".43"/><path fill="#005DFF" d="M310.374 114.788h-48.367v15.351h48.367v-15.351Z" opacity=".46"/><path fill="#005DFF" d="M772.838 178.482h-65.562a3.551 3.551 0 0 0 0 7.103h65.562a3.551 3.551 0 0 0 0-7.103ZM98.797 152.363H26.132v11.684h72.665v-11.684ZM486.995 253.403h-60.98a5.843 5.843 0 0 0 0 11.685h60.98a5.842 5.842 0 1 0 0-11.685ZM486.536 36.43h-65.562a3.551 3.551 0 0 0 0 7.102h65.562a3.551 3.551 0 1 0 0-7.103ZM180.747 271.503h-33.012a3.551 3.551 0 0 0 0 7.103h33.012a3.551 3.551 0 0 0 0-7.103ZM673.238 47.427h-40.115v7.103h40.115v-7.103ZM130.201 93.709H49.055v4.582H130.2v-4.582ZM515.531 140.219h-76.564a2.291 2.291 0 0 0 0 4.583h76.564a2.292 2.292 0 0 0 0-4.583Z" opacity=".61"/><path fill="#E81B88" d="M723.629 257.527h-36.367a6 6 0 0 0-6 6v3.351a6 6 0 0 0 6 6h36.367a6 6 0 0 0 6-6v-3.351a6 6 0 0 0-6-6ZM250.891 253.862h-39.89a4.238 4.238 0 0 0 0 8.477h39.89a4.24 4.24 0 0 0 0-8.477ZM602.866 31.847h-48.367v8.477h48.367v-8.477Z" opacity=".43"/><path fill="#E81B88" d="M270.258 160.611H163.209v7.561h107.049v-7.561Z" opacity=".17"/><path fill="#E81B88" d="M86.077 214.453H49.168a3.78 3.78 0 0 0 0 7.561h36.91a3.78 3.78 0 1 0 0-7.561ZM636.333 103.332h-44.47v7.561h44.47v-7.561Z" opacity=".69"/><g opacity=".34"><path fill="#E81B88" d="M129.283 23.141H24.756v17.184h104.527V23.14Z" opacity=".55"/><path fill="#E81B88" d="M206.191 58.425h-66.938a3.78 3.78 0 0 0 0 7.56h66.938a3.78 3.78 0 0 0 0-7.56ZM517.481 0h-99.488a3.78 3.78 0 1 0 0 7.56h99.488a3.78 3.78 0 1 0 0-7.56ZM504.987 101.041H456.62v15.351h48.367v-15.351Z" opacity=".43"/><path fill="#005DFF" d="M294.327 114.788H245.96v15.351h48.367v-15.351Z" opacity=".46"/><path fill="#005DFF" d="M760.345 178.482h-72.664v7.102h72.664v-7.102ZM82.98 152.363H10.315v11.684H82.98v-11.684ZM471.18 253.403H410.2a5.843 5.843 0 1 0 0 11.685h60.98a5.842 5.842 0 0 0 0-11.685ZM470.72 36.43h-65.562a3.552 3.552 0 1 0 0 7.102h65.562a3.551 3.551 0 0 0 0-7.103ZM168.253 271.503h-40.114v7.103h40.114v-7.103ZM657.421 47.427h-40.114v7.103h40.114v-7.103ZM114.385 93.709H33.238v4.582h81.147v-4.582ZM502.006 140.219h-81.147v4.583h81.147v-4.583Z" opacity=".61"/><path fill="#E81B88" d="M707.812 257.527h-36.367a6 6 0 0 0-6 6v3.351a6 6 0 0 0 6 6h36.367a6 6 0 0 0 6-6v-3.351a6 6 0 0 0-6-6ZM235.074 253.862h-39.889a4.238 4.238 0 1 0 0 8.477h39.889a4.24 4.24 0 0 0 0-8.477ZM587.049 31.847h-48.366v8.477h48.366v-8.477Z" opacity=".43"/><path fill="#E81B88" d="M254.214 160.611H147.165v7.561h107.049v-7.561Z" opacity=".17"/><path fill="#E81B88" d="M74.041 214.453h-44.47v7.561h44.47v-7.561ZM620.517 103.332h-44.47v7.561h44.47v-7.561Z" opacity=".69"/></g><g opacity=".01"><path fill="#E81B88" d="M115.032 23.141H22.505a6 6 0 0 0-6 6v5.184a6 6 0 0 0 6 6h92.527a6 6 0 0 0 6-6V29.14a6 6 0 0 0-6-6Z" opacity=".55"/><path fill="#E81B88" d="M197.711 58.425h-66.937a3.78 3.78 0 1 0 0 7.56h66.937a3.78 3.78 0 1 0 0-7.56ZM509.23 0h-99.488a3.78 3.78 0 1 0 0 7.56h99.488a3.78 3.78 0 1 0 0-7.56ZM496.736 101.041h-48.367v15.351h48.367v-15.351Z" opacity=".43"/><path fill="#005DFF" d="M280.076 114.788h-36.367a6 6 0 0 0-6 6v3.351a6 6 0 0 0 6 6h36.367a6 6 0 0 0 6-6v-3.351a6 6 0 0 0-6-6Z" opacity=".46"/><path fill="#005DFF" d="M748.543 178.482h-65.562a3.551 3.551 0 0 0 0 7.102h65.562a3.551 3.551 0 1 0 0-7.102ZM74.73 152.363H2.063v11.684H74.73v-11.684ZM462.697 253.403h-60.98a5.843 5.843 0 0 0 0 11.685h60.98a5.842 5.842 0 1 0 0-11.685ZM462.238 36.43h-65.563a3.551 3.551 0 0 0 0 7.102h65.563a3.551 3.551 0 0 0 0-7.103ZM156.451 271.503h-33.012a3.551 3.551 0 0 0 0 7.103h33.012a3.551 3.551 0 0 0 0-7.103ZM648.943 47.427h-40.115v7.103h40.115v-7.103ZM105.905 93.709H24.759v4.582h81.146v-4.582ZM493.755 140.219h-81.147v4.583h81.147v-4.583Z" opacity=".61"/><path fill="#E81B88" d="M699.561 257.527h-36.367a6 6 0 0 0-6 6v3.351a6 6 0 0 0 6 6h36.367a6 6 0 0 0 6-6v-3.351a6 6 0 0 0-6-6ZM226.823 253.862h-39.889a4.238 4.238 0 1 0 0 8.477h39.889a4.24 4.24 0 0 0 0-8.477ZM578.57 31.847h-48.367v8.477h48.367v-8.477Z" opacity=".43"/><path fill="#E81B88" d="M242.182 160.611h-99.488a3.78 3.78 0 0 0 0 7.561h99.488a3.781 3.781 0 0 0 0-7.561Z" opacity=".17"/><path fill="#E81B88" d="M62.01 214.453H25.1a3.78 3.78 0 0 0 0 7.561h36.91a3.78 3.78 0 1 0 0-7.561ZM612.036 103.332h-44.47v7.561h44.47v-7.561Z" opacity=".69"/></g></svg>