<svg width="200" height="54" viewBox="0 0 200 54" fill="none" xmlns="http://www.w3.org/2000/svg">
<g clip-path="url(#clip0_473_3237)">
<path d="M9.43309 2.30702C14.8584 2.30702 18.6429 4.15082 19.1355 9.38497H12.3353C12.0412 7.91629 11.2403 7.20496 9.50042 7.20496C7.85973 7.20496 7.01989 7.91275 7.01989 8.9249C7.01989 9.93705 8.02628 10.39 10.7194 10.7262C16.818 11.48 19.7627 13.0761 19.7627 17.7688C19.7804 22.9746 15.9108 25.3104 9.81226 25.3104C7.50537 25.3104 4.60669 25.0025 2.5514 23.4205C0.318925 21.69 0 17.8785 0 17.8785H6.65844C6.9065 19.4569 7.61167 20.3346 9.70595 20.3558H9.76973C11.6195 20.3558 12.4629 19.648 12.4629 18.5544C12.4629 17.4609 11.3998 17.0008 8.38064 16.5832C2.48053 15.8082 0 14.0883 0 9.51945C0 4.65336 4.34447 2.30702 9.43309 2.30702ZM59.1783 2.30702C64.2563 2.30702 68.3917 6.08664 68.4696 13.4442V14.0033C68.4696 21.552 64.3059 25.328 59.1358 25.328C55.8508 25.328 53.4412 23.8098 52.3285 21.6723L52.2931 21.5944L52.2647 31.9247L44.7912 31.8999V2.89449H52.3179V6.1645C53.0135 4.96937 54.0163 3.9816 55.2225 3.3034C56.4286 2.6252 57.7943 2.28121 59.1783 2.30702ZM28.1044 2.89449V15.9887C28.1044 18.466 29.0718 19.6763 31.2157 19.6763C33.4871 19.6763 34.9613 18.335 34.9613 15.5286V2.89449H42.4879V24.8361H34.9613V21.4175C33.7812 23.6824 31.6374 25.3104 27.9803 25.3104C23.728 25.3104 20.5777 22.7092 20.5777 17.1707V2.89449H28.1044ZM56.4745 7.96938C53.7672 7.96938 52.1336 9.90166 52.1017 13.5185V13.9644C52.1017 17.698 53.7424 19.5843 56.4745 19.5843C59.2633 19.5843 60.7765 17.652 60.8048 14.1166V13.6671C60.8048 9.81318 59.1251 7.96938 56.4745 7.96938ZM80.5463 25.3104C87.1905 25.3104 91.0176 22.5004 91.6909 17.5529H84.6249C84.3308 19.0216 83.2784 20.1541 80.7979 20.1541C78.1082 20.1541 76.425 18.4766 76.216 15.5817H91.6909V13.6317C91.6909 5.7469 86.5172 2.30702 80.5037 2.30702C73.8595 2.30702 68.6043 6.75197 68.6043 13.7945V14.1307C68.6043 21.2972 73.6504 25.3104 80.5463 25.3104ZM84.3734 11.3491H76.301C76.6766 8.72318 78.2323 7.26158 80.5037 7.26158C82.9453 7.26158 84.2493 8.72318 84.3734 11.3633V11.3491ZM107.371 2.60075H107.478V9.60084C102.896 9.47698 100.373 10.9032 100.373 14.4245V24.822H92.8426V2.88033H100.355V7.26158C101.741 3.98449 104.055 2.55828 107.46 2.60075H107.371Z" fill="#005DFF"/>
<path fill-rule="evenodd" clip-rule="evenodd" d="M11.583 53.9386C4.90723 53.9386 0.0188809 50.061 0 43.1352V42.2146C0.0119129 35.2797 4.90274 31.3967 11.583 31.3967C18.0274 31.3967 21.7393 34.1222 22.3925 38.9209H15.539C15.2537 37.4964 14.2328 36.398 11.8269 36.398C9.21814 36.398 7.58562 38.025 7.38288 40.8329L7.25026 42.2146V42.9051C7.25543 43.4212 7.38288 44.5024 7.38288 44.5024C7.58562 47.3103 9.21814 48.9373 11.8269 48.9373C14.2328 48.9373 15.2537 47.8389 15.539 46.4144H22.3925C21.7393 51.2131 18.0274 53.9386 11.583 53.9386ZM34.261 31.3967C40.0789 31.3972 43.8177 33.752 43.883 39.2916V53.2725H36.7924V50.7873C35.7612 52.3354 33.8915 53.7599 30.4647 53.7599C26.629 53.7599 23.2469 51.8857 23.2469 47.365C23.2469 42.4015 27.4092 40.4347 34.383 40.3969H36.6343V39.9061C36.6343 37.8705 36.1462 36.525 33.8193 36.525C31.8464 36.525 31.104 37.6749 30.9287 38.9964V39.0513H24.0581C24.3845 33.9236 28.4189 31.3972 34.261 31.3967ZM36.6274 44.516H34.7095C31.7708 44.516 30.4647 45.0858 30.4647 46.8364C30.4647 48.0584 31.2793 48.8342 32.9944 48.8342C35.0567 48.8342 36.5896 47.6808 36.6274 45.8821V44.516ZM131.138 31.627C136.4 31.627 140.071 33.4153 140.548 38.4921H133.953C133.667 37.0676 132.891 36.3776 131.203 36.3776C129.612 36.3776 128.797 37.0641 128.797 38.0458C128.797 39.0276 129.773 39.4669 132.385 39.793C138.301 40.5242 141.157 42.0722 141.157 46.6238C141.174 51.6731 137.421 53.9386 131.505 53.9386C129.268 53.9386 126.456 53.64 124.463 52.1056C122.298 50.4271 121.988 46.7302 121.988 46.7302H128.447C128.687 48.2612 129.371 49.1124 131.402 49.133H131.464C133.258 49.133 134.076 48.4465 134.076 47.3859C134.076 46.3252 133.045 45.879 130.117 45.4739C124.394 44.7222 121.988 43.054 121.988 38.6225C121.988 33.9027 126.202 31.627 131.138 31.627ZM105.736 46.4144C105.083 51.2132 101.371 53.9386 94.9266 53.9386C88.2381 53.9386 83.3438 50.0461 83.3438 43.0951V42.7691C83.3438 35.9383 88.4409 31.627 94.8854 31.627C100.718 31.627 105.736 34.9634 105.736 42.6112V44.5025H90.7266C90.9293 47.3103 92.5619 48.9374 95.1707 48.9374C97.5766 48.9374 98.5974 47.839 98.8827 46.4144H105.736ZM98.638 40.3972C98.5138 37.8451 97.2493 36.4325 94.8854 36.4325C92.6822 36.4325 91.1734 37.8502 90.809 40.3972H98.638ZM71.4266 53.9386C77.8711 53.9386 81.5832 51.2132 82.2362 46.4144H75.3827C75.0974 47.839 74.0766 48.9374 71.6707 48.9374C69.0619 48.9374 67.4293 47.3103 67.2266 44.5025H82.2362V42.6112C82.2362 34.9634 77.2181 31.627 71.3854 31.627C64.9409 31.627 59.8438 35.9383 59.8438 42.7691V43.0951C59.8438 50.0461 64.7381 53.9386 71.4266 53.9386ZM67.309 40.3972H75.138C75.0138 37.8451 73.7493 36.4325 71.3854 36.4325C69.1822 36.4325 67.6734 37.8502 67.309 40.3972ZM121.049 31.6278H121.031C117.728 31.5867 115.484 32.97 114.14 36.1485V31.899H106.854V53.1809H114.157V43.096C114.157 39.6806 116.604 38.2973 121.049 38.4175V31.6278ZM59.0605 31.6278H59.0777V38.4174C54.6336 38.2973 52.1864 39.6806 52.1864 43.096V53.1809H44.8826V31.899H52.1692V36.1485C53.5131 32.9699 55.7575 31.5866 59.0605 31.6278Z" fill="white"/>
<path d="M147.243 2.33048C150.696 2.33048 152.746 3.76953 154.013 5.96532L154.05 6.02735V2.91354H161.566V23.0727C161.566 29.6352 157.243 33.084 149.379 33.084C141.976 33.084 138.522 29.995 137.889 25.07V24.9211H145.342C145.677 26.5214 146.646 27.7868 149.379 27.7868C152.659 27.7868 154.013 25.9259 154.038 23.2463V19.7976C152.907 21.9065 150.51 23.8418 147.23 23.8418C143.951 23.8418 141.23 22.502 139.64 19.81C137.131 15.5673 137.566 10.6919 139.454 6.82131C140.895 3.86877 143.976 2.34288 147.23 2.34288L147.243 2.33048ZM189.628 2.33048C195.628 2.33048 199.479 4.76197 199.553 10.4686V24.8839H192.236V22.3159C191.181 23.9162 189.243 25.3801 185.715 25.3801C181.764 25.3801 178.261 23.4448 178.261 18.7803C178.261 13.6692 182.547 11.6347 189.74 11.5975H192.063V11.0888C192.063 8.99229 191.553 7.60286 189.156 7.60286C187.118 7.60286 186.361 8.78139 186.174 10.146V10.208H179.094C179.429 4.91084 183.591 2.30566 189.615 2.30566L189.628 2.33048ZM178.423 2.62821H178.535V9.71181C173.938 9.58776 171.417 11.0268 171.417 14.5872V25.0948H163.876L163.901 2.92594H171.379V7.32994C172.771 4.03004 175.131 2.57859 178.547 2.62821H178.435H178.423ZM192.063 15.8526H190.087C187.056 15.8526 185.715 16.4357 185.715 18.2469C185.715 19.5122 186.559 20.3062 188.323 20.3062C190.448 20.3062 192.025 19.1153 192.063 17.2668V15.8526ZM149.926 7.96262C147.143 7.96262 145.628 9.8979 145.603 12.8752V13.297C145.603 16.324 147.193 18.2593 149.889 18.2593C152.584 18.2593 154.224 16.3612 154.261 13.3094V12.9249C154.261 9.8979 152.709 7.96262 149.938 7.96262H149.926Z" fill="#FFB700"/>
<path d="M115.814 18.3728C115.665 18.6085 115.889 18.8939 116.15 18.8194C118.361 18.1867 123.814 16.6112 126.535 15.7676C128.448 15.1722 130.05 13.2865 130.262 11.2768C130.597 8.1754 128.485 5.44617 125.305 5.16084C123.74 5.01197 122.05 5.64466 121.094 6.59989C120.137 7.55512 117.504 10.2595 116.299 11.5497C116.113 11.7482 116.274 12.0708 116.547 12.046L119.318 11.7978C119.529 11.773 119.678 12.0087 119.566 12.1948L115.814 18.3852V18.3728Z" fill="#FFB700"/>
<path d="M110.137 25.9403C109.615 25.9403 109.143 25.6053 108.982 25.0843C108.795 24.4516 109.156 23.7693 109.789 23.5832L116.448 21.5859C117.094 21.3998 117.764 21.7596 117.951 22.3923C118.137 23.0249 117.777 23.7072 117.143 23.8933L110.485 25.8906C110.373 25.9279 110.249 25.9403 110.137 25.9403Z" fill="#FFB700"/>
<path d="M104.087 26.9078C103.789 26.9078 103.479 26.7961 103.243 26.5604C102.758 26.1014 102.758 25.3323 103.218 24.8484L113.305 14.4774C113.764 13.9935 114.534 13.9935 115.019 14.4525C115.503 14.9116 115.503 15.6807 115.044 16.1645L104.957 26.5356C104.721 26.7837 104.41 26.8954 104.087 26.8954V26.9078Z" fill="#005DFF"/>
<path d="M120.845 22.7395C120.324 22.7395 119.839 22.3921 119.69 21.8711C119.504 21.226 119.876 20.5561 120.51 20.37C123.727 19.4396 125.963 18.7697 127.33 18.3355C130.299 17.4051 132.609 14.6138 132.945 11.5496C133.193 9.2918 132.56 7.09601 131.156 5.38404C129.777 3.69687 127.777 2.6424 125.541 2.44391C125.305 2.41909 125.069 2.40669 124.833 2.40669C122.696 2.40669 120.572 3.25027 119.156 4.66451C118.187 5.63215 112.435 11.6117 112.373 11.6737C111.914 12.1575 111.144 12.1699 110.659 11.7109C110.175 11.2519 110.162 10.4827 110.622 9.99892C110.858 9.75081 116.448 3.94498 117.429 2.96494C119.293 1.1041 122.05 0 124.821 0C125.131 0 125.442 0.0124056 125.752 0.0372168C128.634 0.297735 131.218 1.66235 133.019 3.85814C134.833 6.07875 135.665 8.90723 135.342 11.8101C134.907 15.7923 131.914 19.4272 128.05 20.6429C126.659 21.0771 124.411 21.747 121.168 22.6899C121.057 22.7271 120.945 22.7395 120.833 22.7395H120.845Z" fill="#005DFF"/>
</g>
<defs>
<clipPath id="clip0_473_3237">
<rect width="200" height="54" fill="white"/>
</clipPath>
</defs>
</svg>
