<svg width="282" height="220" viewBox="0 0 282 220" fill="none" xmlns="http://www.w3.org/2000/svg">
<path d="M26.1871 112.832C18.8452 105.485 18.8452 93.5719 26.1871 86.2244C33.5289 78.8769 45.4324 78.8769 52.7743 86.2244L123.351 157.68C130.693 165.028 130.693 176.94 123.351 184.288C116.009 191.635 104.106 191.635 96.7637 184.288L26.1871 112.832Z" fill="#402534"/>
<path d="M112.558 172.174C105.217 179.522 93.313 179.522 85.9712 172.174C78.6293 164.827 78.6293 152.914 85.9712 145.567L157.372 74.936C164.714 67.5885 176.618 67.5885 183.959 74.936C191.301 82.2835 191.301 94.1961 183.959 101.544L112.558 172.174Z" fill="#402534"/>
<path d="M182.494 102.749C175.152 110.097 163.249 110.097 155.907 102.749C148.565 95.4016 148.565 83.489 155.907 76.1415L227.308 5.51067C234.65 -1.83682 246.553 -1.83682 253.895 5.51067C261.237 12.8582 261.237 24.7708 253.895 32.1183L182.494 102.749Z" fill="#252A34"/>
<path d="M20.5464 120.17C13.2046 112.822 13.2046 100.91 20.5464 93.5621C27.8883 86.2146 39.7918 86.2146 47.1336 93.5621L117.71 165.018C125.052 172.365 125.052 184.278 117.71 191.626C110.368 198.973 98.4649 198.973 91.123 191.626L20.5464 120.17Z" fill="#AF1E6C"/>
<path d="M119.89 177.819C112.549 185.166 100.645 185.166 93.3032 177.819C85.9614 170.471 85.9614 158.559 93.3032 151.211L164.704 80.5803C172.046 73.2328 183.95 73.2328 191.291 80.5803C198.633 87.9277 198.633 99.8404 191.291 107.188L119.89 177.819Z" fill="#AF1E6C"/>
<path d="M189.826 108.393C182.484 115.741 170.581 115.741 163.239 108.393C155.897 101.046 155.897 89.1333 163.239 81.7858L234.64 11.155C241.982 3.80747 253.885 3.80747 261.227 11.155C268.569 18.5025 268.569 30.4151 261.227 37.7626L189.826 108.393Z" fill="#1D3561"/>
<path d="M14.3423 126.378C7.00047 119.031 7.00047 107.118 14.3423 99.7708C21.6842 92.4233 33.5877 92.4233 40.9295 99.7708L111.506 171.227C118.848 178.574 118.848 190.487 111.506 197.834C104.164 205.182 92.2608 205.182 84.9189 197.834L14.3423 126.378Z" fill="#E81B88"/>
<path d="M126.095 184.027C118.753 191.375 106.849 191.375 99.5073 184.027C92.1655 176.68 92.1655 164.767 99.5073 157.42L170.908 86.789C178.25 79.4415 190.154 79.4415 197.496 86.789C204.837 94.1365 204.837 106.049 197.496 113.397L126.095 184.027Z" fill="#E81B88"/>
<path d="M196.03 114.602C188.688 121.95 176.785 121.95 169.443 114.602C162.101 107.255 162.101 95.342 169.443 87.9945L240.844 17.3637C248.186 10.0162 260.089 10.0162 267.431 17.3637C274.773 24.7112 274.773 36.6238 267.431 43.9713L196.03 114.602Z" fill="#0B4DC1"/>
<path d="M249.906 17.5517C257.248 10.2042 269.152 10.2042 276.494 17.5517C283.835 24.8992 283.835 36.8119 276.494 44.1594L107.294 213.489C99.9517 220.837 88.0482 220.837 80.7064 213.489L5.50639 138.232C-1.83546 130.884 -1.83546 118.971 5.50639 111.624C12.8482 104.276 24.7518 104.276 32.0936 111.624L94 173.578L249.906 17.5517Z" fill="white"/>
</svg>
